<svg width="292" height="253" viewBox="0 0 292 253" fill="none" xmlns="http://www.w3.org/2000/svg">
<path d="M181.695 64.4228C183.078 59.2612 190.402 59.2612 191.785 64.4228C202.082 102.849 232.194 132.858 270.639 143.084C275.821 144.462 275.821 151.827 270.639 153.206C232.194 163.431 202.082 193.44 191.785 231.867C190.402 237.028 183.078 237.028 181.695 231.867C171.398 193.44 141.286 163.431 102.842 153.206C97.6598 151.827 97.6598 144.462 102.842 143.084C141.286 132.858 171.398 102.849 181.695 64.4228Z" fill="white" stroke="black"/>
<path d="M118.949 20.6819C120.327 15.5414 127.621 15.5414 128.998 20.6819C139.257 58.9655 169.258 88.8634 207.56 99.0509C212.72 100.424 212.72 107.759 207.56 109.131C169.258 119.319 139.257 149.217 128.998 187.5C127.621 192.641 120.327 192.641 118.949 187.5C108.69 149.217 78.6899 119.319 40.3879 109.131C35.2271 107.759 35.2271 100.424 40.3879 99.0509C78.6899 88.8634 108.69 58.9655 118.949 20.6819Z" stroke="black"/>
<path d="M205.401 16.8279C205.552 15.3592 207.694 15.3592 207.845 16.8279C208.578 23.9823 214.244 29.6462 221.401 30.3618C222.869 30.5086 222.869 32.6478 221.401 32.7946C214.244 33.5103 208.578 39.1741 207.845 46.3285C207.694 47.7972 205.552 47.7972 205.401 46.3285C204.668 39.1741 199.002 33.5103 191.844 32.7946C190.377 32.6478 190.377 30.5086 191.844 30.3618C199.002 29.6462 204.668 23.9823 205.401 16.8279Z" fill="white" stroke="black"/>
<path d="M18.9445 62.4141C19.0124 61.7568 19.9731 61.7568 20.0409 62.4141C20.4989 66.8477 24.0139 70.3605 28.4509 70.8007C29.1062 70.8657 29.1062 71.821 28.4509 71.886C24.0139 72.3261 20.4989 75.839 20.0409 80.2726C19.9731 80.9299 19.0124 80.9299 18.9445 80.2726C18.4865 75.839 14.9716 72.3261 10.5345 71.886C9.87925 71.821 9.87925 70.8657 10.5345 70.8007C14.9716 70.3605 18.4865 66.8477 18.9445 62.4141Z" fill="white" stroke="black"/>
</svg>
