<svg width="18" height="22" viewBox="0 0 18 22" fill="none" xmlns="http://www.w3.org/2000/svg">
<path d="M4.21622 6.16V4.13838C4.37838 1.47459 6.05405 0 9.02703 0C11.973 0 13.6757 1.47459 13.7838 4.18595V6.16H15.7568C17 6.16 18 7.04 18 8.13405V20.0259C18 21.12 17 22 15.7568 22H2.24324C1 22 0 21.12 0 20.0259V8.13405C0 7.04 1 6.16 2.24324 6.16H4.21622ZM5.89189 6.16H12.1081V4.20973C12 2.30703 11.0811 1.47459 9.02703 1.47459C6.97297 1.47459 6.02703 2.30703 5.89189 4.18595V6.16ZM4.21622 7.63459H2.24324C1.91892 7.63459 1.67568 7.84865 1.67568 8.13405V20.0259C1.67568 20.3114 1.91892 20.5254 2.24324 20.5254H15.7568C16.0811 20.5254 16.3243 20.3114 16.3243 20.0259V8.13405C16.3243 7.84865 16.0811 7.63459 15.7568 7.63459H13.7838V10.013C13.7838 10.4173 13.4054 10.7503 12.9459 10.7503C12.4865 10.7503 12.1081 10.4173 12.1081 10.013V7.63459H5.89189V10.013C5.89189 10.4173 5.51351 10.7503 5.05405 10.7503C4.59459 10.7503 4.21622 10.4173 4.21622 10.013V7.63459Z" fill="black"/>
</svg>
